<svg xmlns="http://www.w3.org/2000/svg" width="48" height="48" viewBox="0 0 48 48" fill="none"><g clip-path="url(#clip0_1080_1462)"><path d="M0 8C0 3.58172 3.58172 0 8 0H40C44.4183 0 48 3.58172 48 8V40C48 44.4183 44.4183 48 40 48H8C3.58172 48 0 44.4183 0 40V8Z" fill="url(#paint0_linear_1080_1462)"/><path d="M28.7377 24.7177L28.1878 24.2077L28.7377 24.7177ZM23.1848 19.1648L23.6948 19.7147L23.1848 19.1648ZM31.3742 18.0139L32.1179 18.1112L31.3742 18.0139ZM29.8886 16.5282L29.9858 17.2719L29.9858 17.2719L29.8886 16.5282ZM19.464 24.5934L20.1374 24.9235L20.1374 24.9235L19.464 24.5934ZM23.3091 28.4385L22.979 27.7651L22.979 27.7651L23.3091 28.4385ZM20.9387 22.5214C20.6458 22.2286 20.1709 22.2286 19.8781 22.5214C19.5852 22.8143 19.5852 23.2892 19.8781 23.5821L20.9387 22.5214ZM24.3204 28.0244C24.6133 28.3173 25.0881 28.3173 25.381 28.0244C25.6739 27.7315 25.6739 27.2567 25.381 26.9638L24.3204 28.0244ZM19.5505 29.4126C19.8434 29.1198 19.8434 28.6449 19.5505 28.352C19.2576 28.0591 18.7827 28.0591 18.4898 28.352L19.5505 29.4126ZM16.2687 30.5731C15.9758 30.866 15.9758 31.3409 16.2687 31.6338C16.5616 31.9267 17.0364 31.9267 17.3293 31.6338L16.2687 30.5731ZM17.8846 27.7468C18.1775 27.4539 18.1775 26.979 17.8846 26.6861C17.5917 26.3932 17.1169 26.3932 16.824 26.6861L17.8846 27.7468ZM15.7134 27.7967C15.4205 28.0896 15.4205 28.5645 15.7134 28.8574C16.0063 29.1503 16.4811 29.1503 16.774 28.8574L15.7134 27.7967ZM21.2164 31.0785C21.5093 30.7856 21.5093 30.3108 21.2164 30.0179C20.9235 29.725 20.4486 29.725 20.1557 30.0179L21.2164 31.0785ZM19.0451 31.1284C18.7522 31.4213 18.7522 31.8962 19.0451 32.1891C19.338 32.482 19.8129 32.482 20.1058 32.1891L19.0451 31.1284ZM22.6851 31.2145L23.4275 31.1085L23.4275 31.1085L22.6851 31.2145ZM26.7387 28.4936L27.4812 28.3875L27.4812 28.3875L26.7387 28.4936ZM16.6879 25.2174L16.794 24.475L16.794 24.475L16.6879 25.2174ZM19.4088 21.1638L19.3028 21.9063L19.3028 21.9063L19.4088 21.1638ZM22.1347 27.6045L20.298 25.7678L19.2373 26.8285L21.074 28.6652L22.1347 27.6045ZM28.1878 24.2077C26.7225 25.7875 24.3317 27.1019 22.979 27.7651L23.6393 29.1119C25.0075 28.4411 27.6193 27.0264 29.2876 25.2277L28.1878 24.2077ZM20.1374 24.9235C20.8006 23.5708 22.1149 21.18 23.6948 19.7147L22.6748 18.6149C20.876 20.2832 19.4613 22.895 18.7906 24.2632L20.1374 24.9235ZM30.6306 17.9167C30.3925 19.7373 29.7627 22.5096 28.1878 24.2077L29.2876 25.2277C31.2056 23.1597 31.8751 19.9675 32.1179 18.1112L30.6306 17.9167ZM23.6948 19.7147C25.3929 18.1397 28.1651 17.51 29.9858 17.2719L29.7913 15.7846C27.935 16.0274 24.7428 16.6969 22.6748 18.6149L23.6948 19.7147ZM32.1179 18.1112C32.2974 16.7389 31.1636 15.6051 29.7913 15.7846L29.9858 17.2719C30.3812 17.2202 30.6823 17.5213 30.6306 17.9167L32.1179 18.1112ZM20.298 25.7678C20.0584 25.5282 20.006 25.1915 20.1374 24.9235L18.7906 24.2632C18.3593 25.1429 18.5731 26.1642 19.2373 26.8285L20.298 25.7678ZM21.074 28.6652C21.7383 29.3294 22.7596 29.5432 23.6393 29.1119L22.979 27.7651C22.7109 27.8965 22.3743 27.8441 22.1347 27.6045L21.074 28.6652ZM19.8781 23.5821L24.3204 28.0244L25.381 26.9638L20.9387 22.5214L19.8781 23.5821ZM18.4898 28.352L16.2687 30.5731L17.3293 31.6338L19.5505 29.4126L18.4898 28.352ZM16.824 26.6861L15.7134 27.7967L16.774 28.8574L17.8846 27.7468L16.824 26.6861ZM20.1557 30.0179L19.0451 31.1284L20.1058 32.1891L21.2164 31.0785L20.1557 30.0179ZM24.598 20.0226C23.6918 20.9289 23.6918 22.3982 24.598 23.3045L25.6587 22.2438C25.3382 21.9233 25.3382 21.4038 25.6587 21.0833L24.598 20.0226ZM24.598 23.3045C25.5043 24.2107 26.9736 24.2107 27.8798 23.3045L26.8192 22.2438C26.4987 22.5643 25.9791 22.5643 25.6587 22.2438L24.598 23.3045ZM27.8798 23.3045C28.7861 22.3982 28.7861 20.9289 27.8798 20.0226L26.8192 21.0833C27.1396 21.4038 27.1396 21.9233 26.8192 22.2438L27.8798 23.3045ZM27.8798 20.0226C26.9736 19.1164 25.5043 19.1164 24.598 20.0226L25.6587 21.0833C25.9791 20.7628 26.4987 20.7628 26.8192 21.0833L27.8798 20.0226ZM25.9862 28.6296L23.4874 31.1284L24.5481 32.1891L27.0469 29.6903L25.9862 28.6296ZM23.4275 31.1085L23.0944 28.7763L21.6094 28.9884L21.9426 31.3206L23.4275 31.1085ZM25.7741 27.0449L25.9962 28.5997L27.4812 28.3875L27.259 26.8327L25.7741 27.0449ZM23.4874 31.1284C23.4811 31.1348 23.4771 31.1371 23.4759 31.1378C23.4745 31.1385 23.4734 31.1389 23.4721 31.1392C23.4691 31.1398 23.4615 31.1404 23.4513 31.137C23.4412 31.1336 23.4354 31.1286 23.4333 31.1262C23.4325 31.1252 23.4319 31.1243 23.4312 31.1229C23.4306 31.1216 23.4288 31.1174 23.4275 31.1085L21.9426 31.3206C22.1215 32.573 23.6535 33.0837 24.5481 32.1891L23.4874 31.1284ZM27.0469 29.6903C27.3886 29.3486 27.5495 28.8659 27.4812 28.3875L25.9962 28.5997C25.9978 28.6107 25.9941 28.6218 25.9862 28.6296L27.0469 29.6903ZM18.2122 20.8556L15.7134 23.3544L16.774 24.4151L19.2728 21.9163L18.2122 20.8556ZM16.5819 25.9599L18.9141 26.2931L19.1262 24.8081L16.794 24.475L16.5819 25.9599ZM21.0697 20.6435L19.5149 20.4213L19.3028 21.9063L20.8576 22.1284L21.0697 20.6435ZM15.7134 23.3544C14.8188 24.249 15.3294 25.781 16.5819 25.9599L16.794 24.475C16.7851 24.4737 16.7809 24.4719 16.7796 24.4713C16.7782 24.4706 16.7772 24.47 16.7762 24.4692C16.7739 24.4671 16.7689 24.4613 16.7655 24.4512C16.7621 24.441 16.7626 24.4334 16.7633 24.4303C16.7636 24.4291 16.764 24.428 16.7647 24.4266C16.7654 24.4254 16.7677 24.4214 16.774 24.4151L15.7134 23.3544ZM19.2728 21.9163C19.2807 21.9084 19.2918 21.9047 19.3028 21.9063L19.5149 20.4213C19.0365 20.353 18.5539 20.5139 18.2122 20.8556L19.2728 21.9163Z" fill="#0D493D"/></g><defs><linearGradient id="paint0_linear_1080_1462" x1="11.1268" y1="-3.56731" x2="28.409" y2="51.5935" gradientUnits="userSpaceOnUse"><stop stop-color="#C6FB4B"/><stop offset="1" stop-color="#46FDAE"/></linearGradient><clipPath id="clip0_1080_1462"><rect width="48" height="48" fill="white"/></clipPath></defs></svg>