<svg xmlns="http://www.w3.org/2000/svg" width="50" height="50" viewBox="0 0 50 50" fill="none"><rect width="49.9766" height="49.9766" rx="15" fill="#1D3728"/><path d="M17.5431 24.839C18.087 23.4582 18.7408 22.1297 19.5045 20.8535C20.2681 19.5773 21.1311 18.3744 22.0935 17.2446L20.4616 16.8994C20.0432 16.8157 19.6352 16.8367 19.2377 16.9622C18.8402 17.0877 18.495 17.2969 18.2021 17.5898L14.248 21.5439C13.9342 21.8578 13.8139 22.2343 13.8871 22.6737C13.9603 23.113 14.2061 23.4164 14.6246 23.5838L17.5431 24.839ZM35.9956 12.6001C33.778 12.4955 31.6702 12.9244 29.6722 13.8868C27.6742 14.8491 25.8907 16.1149 24.3216 17.684C23.3174 18.6882 22.4334 19.7761 21.6698 20.9477C20.9062 22.1193 20.2419 23.3536 19.6771 24.6507C19.5724 24.9227 19.5201 25.1999 19.5201 25.4824C19.5201 25.7648 19.6248 26.0106 19.834 26.2198L23.7567 30.1426C23.9659 30.3518 24.2117 30.4564 24.4942 30.4564C24.7766 30.4564 25.0538 30.4041 25.3258 30.2995C26.6229 29.7346 27.8573 29.0704 29.0289 28.3067C30.2005 27.5431 31.2884 26.6592 32.2926 25.655C33.8617 24.0859 35.1274 22.3023 36.0898 20.3044C37.0522 18.3064 37.4811 16.1986 37.3764 13.9809C37.3764 13.8135 37.3346 13.6462 37.2509 13.4788C37.1672 13.3114 37.0626 13.165 36.9371 13.0394C36.8116 12.9139 36.6651 12.8093 36.4978 12.7256C36.3304 12.6419 36.163 12.6001 35.9956 12.6001ZM27.3029 20.1788C27.3029 19.478 27.5435 18.8869 28.0246 18.4058C28.5058 17.9246 29.0969 17.684 29.7977 17.684C30.4986 17.684 31.0896 17.9246 31.5708 18.4058C32.052 18.8869 32.2926 19.478 32.2926 20.1788C32.2926 20.8797 32.052 21.4707 31.5708 21.9519C31.0896 22.4331 30.4986 22.6737 29.7977 22.6737C29.0969 22.6737 28.5058 22.4331 28.0246 21.9519C27.5435 21.4707 27.3029 20.8797 27.3029 20.1788ZM25.1375 32.4335L26.3928 35.352C26.5602 35.7704 26.8635 36.0215 27.3029 36.1051C27.7422 36.1888 28.1188 36.0738 28.4326 35.7599L32.3867 31.8058C32.6796 31.5129 32.8888 31.1625 33.0144 30.7545C33.1399 30.3466 33.1608 29.9334 33.0771 29.5149L32.7633 27.8831C31.6126 28.8455 30.4044 29.7085 29.1387 30.4721C27.873 31.2357 26.5392 31.8895 25.1375 32.4335ZM14.9384 29.7346C15.6706 29.0024 16.5598 28.631 17.6059 28.6206C18.6519 28.6101 19.5411 28.971 20.2733 29.7032C21.0056 30.4355 21.3717 31.3246 21.3717 32.3707C21.3717 33.4168 21.0056 34.3059 20.2733 35.0382C19.2691 36.0424 18.0818 36.6386 16.7115 36.8269C15.3411 37.0152 13.9656 37.2035 12.5847 37.3918C12.773 36.011 12.9666 34.6354 13.1653 33.2651C13.3641 31.8947 13.9551 30.7179 14.9384 29.7346Z" fill="#C6FB4B"/></svg>