<?xml version="1.0" encoding="UTF-8"?><svg xmlns="http://www.w3.org/2000/svg" xmlns:xlink="http://www.w3.org/1999/xlink" id="Layer_1" data-name="Layer 1" viewBox="0 0 250 250"><defs><style> .cls-1 { fill: url(#linear-gradient); } </style><linearGradient id="linear-gradient" x1="242.68" y1="242.68" x2="7.32" y2="7.32" gradientUnits="userSpaceOnUse"><stop offset="0" stop-color="#c6fb4b"/><stop offset="1" stop-color="#46fdae"/></linearGradient></defs><path class="cls-1" d="M166.69,87.03v-26.55h24.97c7.17,0,13,5.83,13,13v50.85l-11.88-11.88c-.78-.78-2.05-.78-2.83,0-.78.78-.78,2.05,0,2.83l12.69,12.69c1.06,1.06,2.47,1.65,3.97,1.65s2.91-.58,3.97-1.65l12.78-12.78c.78-.78.78-2.05,0-2.83-.78-.78-2.05-.78-2.83,0l-11.88,11.88v-50.75c0-9.37-7.63-17-17-17h-24.97v-31.48c0-13.81-11.19-25-25-25H25C11.19,0,0,11.19,0,25v62.03c0,13.81,11.19,25,25,25h116.69c13.81,0,25-11.19,25-25ZM25,4h116.69c10.9,0,19.89,8.36,20.9,19H4.1C5.11,12.36,14.1,4,25,4ZM4,87.03V26.99s.04,0,.06,0h158.63v60.03c0,11.58-9.42,21-21,21H25c-11.58,0-21-9.42-21-21ZM21.87,46.93c0-1.1.9-2,2-2h119.43c1.1,0,2,.9,2,2s-.9,2-2,2H23.87c-1.1,0-2-.9-2-2ZM45.86,64.84h-17.79c-3.42,0-6.2,2.78-6.2,6.2v17.79c0,3.42,2.78,6.2,6.2,6.2h17.79c3.42,0,6.2-2.78,6.2-6.2v-17.79c0-3.42-2.78-6.2-6.2-6.2ZM48.07,88.83c0,1.21-.99,2.2-2.2,2.2h-17.79c-1.22,0-2.2-.99-2.2-2.2v-17.79c0-1.21.99-2.2,2.2-2.2h17.79c1.22,0,2.2.99,2.2,2.2v17.79ZM92.48,64.84h-17.79c-3.42,0-6.2,2.78-6.2,6.2v17.79c0,3.42,2.78,6.2,6.2,6.2h17.79c3.42,0,6.2-2.78,6.2-6.2v-17.79c0-3.42-2.78-6.2-6.2-6.2ZM94.69,88.83c0,1.21-.99,2.2-2.2,2.2h-17.79c-1.22,0-2.2-.99-2.2-2.2v-17.79c0-1.21.99-2.2,2.2-2.2h17.79c1.22,0,2.2.99,2.2,2.2v17.79ZM145.3,88.83v-17.79c0-3.42-2.78-6.2-6.2-6.2h-17.79c-3.42,0-6.2,2.78-6.2,6.2v17.79c0,3.42,2.78,6.2,6.2,6.2h17.79c3.42,0,6.2-2.78,6.2-6.2ZM141.3,88.83c0,1.21-.99,2.2-2.2,2.2h-17.79c-1.21,0-2.2-.99-2.2-2.2v-17.79c0-1.21.99-2.2,2.2-2.2h17.79c1.22,0,2.2.99,2.2,2.2v17.79ZM225,137.97h-116.69c-13.81,0-25,11.19-25,25v32.57h-24.73c-7.17,0-13-5.83-13-13v-57.85l11.88,11.88c.78.78,2.05.78,2.83,0,.78-.78.78-2.05,0-2.83l-12.69-12.69c-1.06-1.06-2.47-1.65-3.97-1.65s-2.91.58-3.97,1.65l-12.78,12.78c-.78.78-.78,2.05,0,2.83.39.39.9.59,1.41.59s1.02-.2,1.41-.59l11.88-11.88v57.75c0,9.37,7.63,17,17,17h24.73v25.47c0,13.81,11.19,25,25,25h116.69c13.81,0,25-11.19,25-25v-62.03c0-13.81-11.19-25-25-25ZM108.31,141.97h116.69c10.9,0,19.89,8.36,20.9,19H87.42c1.01-10.64,9.99-19,20.9-19ZM225,246h-116.69c-11.58,0-21-9.42-21-21v-26.85c.06-.19.11-.4.11-.61s-.04-.42-.11-.61v-31.96s.04,0,.06,0h158.63v60.03c0,11.58-9.42,21-21,21ZM228.62,184.24c0,1.1-.9,2-2,2h-119.43c-1.1,0-2-.9-2-2s.9-2,2-2h119.43c1.1,0,2,.9,2,2ZM129.18,202.8h-17.79c-3.42,0-6.2,2.78-6.2,6.2v17.78c0,3.42,2.78,6.2,6.2,6.2h17.79c3.42,0,6.2-2.78,6.2-6.2v-17.78c0-3.42-2.78-6.2-6.2-6.2ZM131.38,226.79c0,1.22-.99,2.2-2.2,2.2h-17.79c-1.22,0-2.2-.99-2.2-2.2v-17.78c0-1.22.99-2.2,2.2-2.2h17.79c1.22,0,2.2.99,2.2,2.2v17.78ZM175.8,202.8h-17.79c-3.42,0-6.2,2.78-6.2,6.2v17.78c0,3.42,2.78,6.2,6.2,6.2h17.79c3.42,0,6.2-2.78,6.2-6.2v-17.78c0-3.42-2.78-6.2-6.2-6.2ZM178,226.79c0,1.22-.99,2.2-2.2,2.2h-17.79c-1.21,0-2.2-.99-2.2-2.2v-17.78c0-1.22.99-2.2,2.2-2.2h17.79c1.22,0,2.2.99,2.2,2.2v17.78ZM222.42,202.8h-17.79c-3.42,0-6.2,2.78-6.2,6.2v17.78c0,3.42,2.78,6.2,6.2,6.2h17.79c3.42,0,6.2-2.78,6.2-6.2v-17.78c0-3.42-2.78-6.2-6.2-6.2ZM224.62,226.79c0,1.22-.99,2.2-2.2,2.2h-17.79c-1.22,0-2.2-.99-2.2-2.2v-17.78c0-1.22.99-2.2,2.2-2.2h17.79c1.21,0,2.2.99,2.2,2.2v17.78Z"/></svg>